# xmcd
#
# Track frame offsets:
#  150
#  4372
#  20610
#  31073
#  50940
#  70189
#  89301
#  103394
#  123807
#  137191
#  150900
#  162460
#  182415
#  196876
#
# Disc length: 2979 seconds
#
# Revision: 0
# Processed by: cddbd v1.5.2PL0 Copyright (c) Steve Scherf et al.
# Submitted via: AltoMP3_Maker 3.0
#
DISCID=b80ba10e
DTITLE=Johnny Gimble - Celebrating with Friends
DYEAR=2010
DGENRE=Country
TTITLE0=Johnny Gimble Reflects
TTITLE1=Fiddlin' Around (Jason Roberts)
TTITLE2=Somewhere South of San Antone (Vince Gill)
TTITLE3=Sweet Georgia Brown (Merle Haggard)
TTITLE4=Gardenia Waltz (Jason Roberts)
TTITLE5=Lady Be Good (Willie Nelson)
TTITLE6=I Needed You (Dale Watson)
TTITLE7=If I Had You (Emily Gimble)
TTITLE8=Rural Riffin'
TTITLE9=Under the X in Texas (Ray Benson)
TTITLE10=Hey Mr. Cowboy (Jesse Dayton)
TTITLE11=Mandelopin'
TTITLE12=Do What YOu Did, When You Did
TTITLE13=Owed to Johnny Gimble (Garrison Keillor)
EXTD=
EXTT0=
EXTT1=
EXTT2=
EXTT3=
EXTT4=
EXTT5=
EXTT6=
EXTT7=
EXTT8=
EXTT9=
EXTT10=
EXTT11=
EXTT12=
EXTT13=
PLAYORDER=
